<svg width="235" height="235" xmlns="http://www.w3.org/2000/svg" xmlns:xlink="http://www.w3.org/1999/xlink" overflow="hidden"><defs><clipPath id="clip0"><path d="M1228 281 1463 281 1463 516 1228 516Z" fill-rule="evenodd" clip-rule="evenodd"/></clipPath><clipPath id="clip1"><path d="M1249 297 1441 297 1441 488 1249 488Z" fill-rule="evenodd" clip-rule="evenodd"/></clipPath><clipPath id="clip2"><path d="M1249 297 1441 297 1441 488 1249 488Z" fill-rule="evenodd" clip-rule="evenodd"/></clipPath><clipPath id="clip3"><path d="M1249 297 1441 297 1441 488 1249 488Z" fill-rule="evenodd" clip-rule="evenodd"/></clipPath></defs><g clip-path="url(#clip0)" transform="translate(-1228 -281)"><path d="M1230 398.5C1230 334.711 1281.71 283 1345.5 283 1409.29 283 1461 334.711 1461 398.5 1461 462.289 1409.29 514 1345.5 514 1281.71 514 1230 462.289 1230 398.5ZM1239.97 398.5C1239.97 456.78 1287.22 504.025 1345.5 504.025 1403.78 504.025 1451.03 456.78 1451.03 398.5 1451.03 340.22 1403.78 292.975 1345.5 292.975 1287.22 292.975 1239.97 340.22 1239.97 398.5Z" stroke="#E2F0D9" stroke-width="2" stroke-miterlimit="8" fill="#C5E0B4" fill-rule="evenodd"/><g clip-path="url(#clip1)"><g clip-path="url(#clip2)"><g clip-path="url(#clip3)"><path d="M27.4 63.6 45.4 63.6 45.4 67.6 27.4 67.6Z" fill="#548235" transform="matrix(1.8478 0.761414 -0.7654 1.83818 1304.74 279.253)"/><path d="M117.385 87.5417C117.385 91.9369 113.822 95.5 109.427 95.5 105.032 95.5 101.469 91.9369 101.469 87.5417 101.469 83.1464 105.032 79.5833 109.427 79.5833 113.822 79.5833 117.385 83.1464 117.385 87.5417Z" fill="#548235" transform="matrix(1.00524 0 -0 1 1249 297)"/><path d="M117.385 87.5417C117.385 91.9369 113.822 95.5 109.427 95.5 105.032 95.5 101.469 91.9369 101.469 87.5417 101.469 83.1464 105.032 79.5833 109.427 79.5833 113.822 79.5833 117.385 83.1464 117.385 87.5417Z" fill="#548235" transform="matrix(1.00524 0 -0 1 1249 297)"/><path d="M113.406 163.146C127.93 152.203 137.281 134.894 137.281 115.396 137.281 95.301 127.134 77.3948 111.815 66.651L127.93 27.8542 122.359 25.6656 126.736 14.9219 115.794 10.3458 111.417 21.0896 105.846 18.901 72.2219 99.8771 72.2219 99.8771C70.6302 103.856 71.2271 108.432 73.8135 111.616L71.625 116.789 82.5677 121.365 84.7562 116.192C88.9344 115.595 92.5156 113.008 94.3063 109.029L94.3063 109.029 96.4948 103.458 123.752 103.458C124.747 107.239 125.344 111.218 125.344 115.396 125.344 141.658 103.856 163.146 77.5938 163.146L39.7917 163.146 39.7917 175.083 39.7917 179.063 151.208 179.063 151.208 175.083 151.208 163.146 113.406 163.146ZM109.427 99.4792C102.861 99.4792 97.4896 94.1073 97.4896 87.5417 97.4896 80.976 102.861 75.6042 109.427 75.6042 115.993 75.6042 121.365 80.976 121.365 87.5417 121.365 94.1073 115.993 99.4792 109.427 99.4792Z" fill="#548235" transform="matrix(1.00524 0 -0 1 1249 297)"/></g></g></g></g></svg>