<svg width="236" height="236" xmlns="http://www.w3.org/2000/svg" xmlns:xlink="http://www.w3.org/1999/xlink" overflow="hidden"><defs><clipPath id="clip0"><path d="M1241 588 1477 588 1477 824 1241 824Z" fill-rule="evenodd" clip-rule="evenodd"/></clipPath><clipPath id="clip1"><path d="M1263 605 1454 605 1454 796 1263 796Z" fill-rule="evenodd" clip-rule="evenodd"/></clipPath><clipPath id="clip2"><path d="M1263 605 1454 605 1454 796 1263 796Z" fill-rule="evenodd" clip-rule="evenodd"/></clipPath><clipPath id="clip3"><path d="M1263 605 1454 605 1454 796 1263 796Z" fill-rule="evenodd" clip-rule="evenodd"/></clipPath></defs><g clip-path="url(#clip0)" transform="translate(-1241 -588)"><path d="M1243 705.5C1243 641.711 1294.71 590 1358.5 590 1422.29 590 1474 641.711 1474 705.5 1474 769.289 1422.29 821 1358.5 821 1294.71 821 1243 769.289 1243 705.5Z" stroke="#E2F0D9" stroke-width="2" stroke-miterlimit="8" fill="#FFFFFF" fill-rule="evenodd"/><path d="M1243 707C1243 642.935 1294.71 591 1358.5 591 1422.29 591 1474 642.935 1474 707 1474 771.065 1422.29 823 1358.5 823 1294.71 823 1243 771.065 1243 707ZM1252.97 707C1252.97 765.556 1300.22 813.025 1358.5 813.025 1416.78 813.025 1464.03 765.556 1464.03 707 1464.03 648.444 1416.78 600.975 1358.5 600.975 1300.22 600.975 1252.97 648.444 1252.97 707Z" stroke="#E2F0D9" stroke-width="2" stroke-miterlimit="8" fill="#C5E0B4" fill-rule="evenodd"/><g clip-path="url(#clip1)"><g clip-path="url(#clip2)"><g clip-path="url(#clip3)"><path d="M1320.39 725.024 1353.48 738.729 1350.44 746.082 1317.35 732.377Z" fill="#548235"/><path d="M1380.39 692.542C1380.39 696.937 1376.82 700.5 1372.43 700.5 1368.03 700.5 1364.47 696.937 1364.47 692.542 1364.47 688.146 1368.03 684.583 1372.43 684.583 1376.82 684.583 1380.39 688.146 1380.39 692.542Z" fill="#548235"/><path d="M1380.39 692.542C1380.39 696.937 1376.82 700.5 1372.43 700.5 1368.03 700.5 1364.47 696.937 1364.47 692.542 1364.47 688.146 1368.03 684.583 1372.43 684.583 1376.82 684.583 1380.39 688.146 1380.39 692.542Z" fill="#548235"/><path d="M1376.41 768.146C1390.93 757.203 1400.28 739.894 1400.28 720.396 1400.28 700.301 1390.13 682.395 1374.81 671.651L1390.93 632.854 1385.36 630.666 1389.74 619.922 1378.79 615.346 1374.42 626.09 1368.85 623.901 1335.22 704.877 1335.22 704.877C1333.63 708.856 1334.23 713.432 1336.81 716.616L1334.63 721.789 1345.57 726.365 1347.76 721.192C1351.93 720.595 1355.52 718.008 1357.31 714.029L1357.31 714.029 1359.49 708.458 1386.75 708.458C1387.75 712.239 1388.34 716.218 1388.34 720.396 1388.34 746.658 1366.86 768.146 1340.59 768.146L1302.79 768.146 1302.79 780.083 1302.79 784.063 1414.21 784.063 1414.21 780.083 1414.21 768.146 1376.41 768.146ZM1372.43 704.479C1365.86 704.479 1360.49 699.107 1360.49 692.542 1360.49 685.976 1365.86 680.604 1372.43 680.604 1378.99 680.604 1384.36 685.976 1384.36 692.542 1384.36 699.107 1378.99 704.479 1372.43 704.479Z" fill="#548235"/></g></g></g></g></svg>