<svg width="1002" height="644" xmlns="http://www.w3.org/2000/svg" xmlns:xlink="http://www.w3.org/1999/xlink" overflow="hidden"><defs><clipPath id="clip0"><path d="M509 258 1511 258 1511 902 509 902Z" fill-rule="evenodd" clip-rule="evenodd"/></clipPath><clipPath id="clip1"><path d="M895 297 1425 297 1425 828 895 828Z" fill-rule="evenodd" clip-rule="evenodd"/></clipPath><clipPath id="clip2"><path d="M895 297 1425 297 1425 828 895 828Z" fill-rule="evenodd" clip-rule="evenodd"/></clipPath><clipPath id="clip3"><path d="M895 297 1425 297 1425 828 895 828Z" fill-rule="evenodd" clip-rule="evenodd"/></clipPath><clipPath id="clip4"><path d="M596 532 717 532 717 652 596 652Z" fill-rule="evenodd" clip-rule="evenodd"/></clipPath><clipPath id="clip5"><path d="M596 532 717 532 717 652 596 652Z" fill-rule="evenodd" clip-rule="evenodd"/></clipPath><clipPath id="clip6"><path d="M596 532 717 532 717 652 596 652Z" fill-rule="evenodd" clip-rule="evenodd"/></clipPath><clipPath id="clip7"><path d="M820 538 928 538 928 646 820 646Z" fill-rule="evenodd" clip-rule="evenodd"/></clipPath><clipPath id="clip8"><path d="M820 538 928 538 928 646 820 646Z" fill-rule="evenodd" clip-rule="evenodd"/></clipPath><clipPath id="clip9"><path d="M820 538 928 538 928 646 820 646Z" fill-rule="evenodd" clip-rule="evenodd"/></clipPath><clipPath id="clip10"><path d="M757.537 516.216 839.768 585.641 770.343 667.872 688.112 598.447Z" fill-rule="evenodd" clip-rule="evenodd"/></clipPath><clipPath id="clip11"><path d="M757.537 516.216 839.768 585.641 770.343 667.872 688.112 598.447Z" fill-rule="evenodd" clip-rule="evenodd"/></clipPath><clipPath id="clip12"><path d="M757.537 516.216 839.768 585.641 770.343 667.872 688.112 598.447Z" fill-rule="evenodd" clip-rule="evenodd"/></clipPath><clipPath id="clip13"><path d="M938 538 1045 538 1045 646 938 646Z" fill-rule="evenodd" clip-rule="evenodd"/></clipPath><clipPath id="clip14"><path d="M938 538 1045 538 1045 646 938 646Z" fill-rule="evenodd" clip-rule="evenodd"/></clipPath><clipPath id="clip15"><path d="M938 538 1045 538 1045 646 938 646Z" fill-rule="evenodd" clip-rule="evenodd"/></clipPath></defs><g clip-path="url(#clip0)" transform="translate(-509 -258)"><path d="M804 580C804 403.269 947.269 260 1124 260 1300.73 260 1444 403.269 1444 580 1444 756.731 1300.73 900 1124 900 947.269 900 804 756.731 804 580ZM831.635 580C831.635 741.469 962.531 872.365 1124 872.365 1285.47 872.365 1416.36 741.469 1416.36 580 1416.36 418.531 1285.47 287.635 1124 287.635 962.531 287.635 831.635 418.531 831.635 580Z" stroke="#E2F0D9" stroke-width="2" stroke-miterlimit="8" fill="#C5E0B4" fill-rule="evenodd"/><g clip-path="url(#clip1)"><g clip-path="url(#clip2)"><g clip-path="url(#clip3)"><path d="M27.4 63.6 45.4 63.6 45.4 67.6 27.4 67.6Z" fill="#548235" transform="matrix(5.1007 2.11681 -2.11282 5.11032 1048.88 247.662)"/><path d="M325.729 242.917C325.729 255.113 315.842 265 303.646 265 291.45 265 281.563 255.113 281.563 242.917 281.563 230.72 291.45 220.833 303.646 220.833 315.842 220.833 325.729 230.72 325.729 242.917Z" fill="#548235" transform="matrix(1 0 -0 1.00189 895 297)"/><path d="M325.729 242.917C325.729 255.113 315.842 265 303.646 265 291.45 265 281.563 255.113 281.563 242.917 281.563 230.72 291.45 220.833 303.646 220.833 315.842 220.833 325.729 230.72 325.729 242.917Z" fill="#548235" transform="matrix(1 0 -0 1.00189 895 297)"/><path d="M314.688 452.708C354.99 422.344 380.938 374.313 380.938 320.208 380.938 264.448 352.781 214.76 310.271 184.948L354.99 77.2917 339.531 71.2188 351.677 41.4063 321.313 28.7083 309.167 58.5208 293.708 52.4479 200.406 277.146 200.406 277.146C195.99 288.188 197.646 300.885 204.823 309.719L198.75 324.073 229.115 336.771 235.188 322.417C246.781 320.76 256.719 313.583 261.688 302.542L261.688 302.542 267.76 287.083 343.396 287.083C346.156 297.573 347.813 308.615 347.813 320.208 347.813 393.083 288.188 452.708 215.313 452.708L110.417 452.708 110.417 485.833 110.417 496.875 419.583 496.875 419.583 485.833 419.583 452.708 314.688 452.708ZM303.646 276.042C285.427 276.042 270.521 261.135 270.521 242.917 270.521 224.698 285.427 209.792 303.646 209.792 321.865 209.792 336.771 224.698 336.771 242.917 336.771 261.135 321.865 276.042 303.646 276.042Z" fill="#548235" transform="matrix(1 0 -0 1.00189 895 297)"/></g></g></g><g clip-path="url(#clip4)"><g clip-path="url(#clip5)"><g clip-path="url(#clip6)"><path d="M67.125 60C67.125 64.1421 63.7671 67.5 59.625 67.5 55.4829 67.5 52.125 64.1421 52.125 60 52.125 55.8579 55.4829 52.5 59.625 52.5 63.7671 52.5 67.125 55.8579 67.125 60Z" fill="#548235" transform="matrix(1.00833 0 -0 1 596 532)"/><path d="M103.625 35C101.5 31.375 96.75 29.625 90.25 29.625 86.125 29.625 81.375 30.375 76.125 31.75 72.5 18.625 66.5 10 59.625 10 52.875 10 46.75 18.5 43.25 31.5 38.25 30.25 33.75 29.5 29.75 29.5 23.25 29.5 18.5 31.25 16.375 34.875 12.875 40.875 17.5 50.5 27.125 60.25 17.875 69.75 13.625 79 17 84.875 19.125 88.5 23.875 90.25 30.375 90.25 34.125 90.25 38.5 89.625 43.25 88.5 46.875 101.5 52.875 110 59.625 110 66.375 110 72.5 101.5 76 88.5 81 89.75 85.5 90.5 89.5 90.5 96 90.5 100.75 88.75 102.875 85.125 106.25 79.25 102 70 92.75 60.5 102.625 50.625 107.125 41 103.625 35ZM90.25 34.625C94.875 34.625 98.25 35.75 99.25 37.5 101.125 40.75 97.75 48.375 89.25 56.875 86.25 54.125 82.875 51.375 79.125 48.75 78.75 44.5 78.125 40.375 77.25 36.5 82 35.25 86.5 34.625 90.25 34.625ZM67.875 73C65.25 74.5 62.625 75.875 60 77.125 57.375 75.875 54.75 74.5 52.125 73 49.625 71.5 47.125 70 44.875 68.5 44.625 65.75 44.625 63 44.625 60 44.625 57.25 44.75 54.625 44.875 52 47.375 50.25 50 48.625 52.875 47 55.25 45.625 57.625 44.375 60 43.25 62.375 44.375 64.75 45.625 67.125 47 69.625 48.5 72.125 50 74.375 51.5 74.625 54.25 74.625 57 74.625 60 74.625 63.125 74.5 66.125 74.25 69 72.25 70.375 70.125 71.625 67.875 73ZM73.625 75.375C73.25 77.75 72.875 80.125 72.5 82.25 70.375 81.5 68.125 80.75 65.875 79.75 67.375 79 68.875 78.125 70.375 77.25 71.5 76.625 72.625 76 73.625 75.375ZM54.125 79.75C51.625 80.75 49.25 81.625 46.875 82.375 46.375 80 46 77.5 45.625 74.875 47 75.75 48.25 76.5 49.75 77.375 51.125 78.125 52.625 79 54.125 79.75ZM39.75 64.75C37.75 63.25 36 61.75 34.375 60.25 36 58.75 37.875 57.25 39.75 55.75 39.75 57.125 39.625 58.5 39.625 60 39.625 61.625 39.625 63.25 39.75 64.75ZM45.5 45.625C45.875 42.875 46.25 40.25 46.75 37.75 49.125 38.5 51.625 39.5 54.125 40.5 52.875 41.125 51.5 41.875 50.25 42.625 48.75 43.625 47.125 44.625 45.5 45.625ZM65.75 40.5C68 39.5 70.25 38.75 72.5 38 73 40.25 73.375 42.625 73.75 45.125 72.375 44.25 71.125 43.5 69.625 42.625 68.375 42 67.125 41.25 65.75 40.5ZM79.5 55.25C81.75 57 83.75 58.625 85.625 60.375 83.75 62 81.75 63.75 79.5 65.375 79.625 63.625 79.625 61.875 79.625 60.125 79.625 58.375 79.625 56.75 79.5 55.25ZM59.625 15C63.375 15 68.25 21.625 71.375 33.125 67.75 34.375 63.875 35.875 60 37.625 55.875 35.75 51.875 34.125 48 32.875 51.125 21.5 55.875 15 59.625 15ZM20.625 37.5C21.75 35.625 25 34.625 29.625 34.625 33.25 34.625 37.375 35.25 41.875 36.375 41 40.375 40.375 44.75 40 49.25 36.5 51.75 33.375 54.25 30.625 56.875 22.25 48.375 18.75 40.75 20.625 37.5ZM30.375 85.375C25.75 85.375 22.375 84.25 21.375 82.5 19.5 79.25 22.75 72 30.75 63.75 33.625 66.25 36.75 68.75 40.125 71.25 40.5 75.625 41.125 79.875 42 83.75 37.875 84.875 33.875 85.375 30.375 85.375ZM59.625 105C55.875 105 51.125 98.5 48 87.25 51.875 86 55.875 84.5 60 82.625 63.875 84.375 67.625 85.875 71.25 87 68.125 98.5 63.375 105 59.625 105ZM98.625 82.5C97.5 84.375 94.25 85.375 89.625 85.375 86 85.375 81.75 84.75 77.375 83.625 78.125 79.875 78.75 76 79.125 71.75 82.875 69.125 86.25 66.5 89.25 63.75 97.25 72 100.5 79.25 98.625 82.5Z" fill="#548235" transform="matrix(1.00833 0 -0 1 596 532)"/></g></g></g><g clip-path="url(#clip7)"><g clip-path="url(#clip8)"><g clip-path="url(#clip9)"><path d="M916.75 599.987C920.013 595.263 919.787 588.85 916.188 584.35 916.638 583 916.862 581.65 916.862 580.3 916.862 573.888 912.25 568.487 906.063 567.25 904.15 561.737 899.088 558.138 893.237 558.138 892.225 558.138 891.1 558.25 890.088 558.475 887.725 555.662 884.237 553.975 880.638 553.638 876.925 553.412 873.325 554.65 870.625 557.125 867.138 554.763 862.75 554.088 858.813 555.325 854.763 556.563 851.612 559.6 850.15 563.65 849.925 563.65 849.588 563.65 849.362 563.65 841.938 563.65 835.975 569.5 835.862 576.925 835.862 577.15 835.862 577.375 835.862 577.6 831.362 580.075 828.775 584.912 829.112 590.088 829.563 597.175 835.862 602.463 843.063 602.463L860.5 602.463C867.925 602.463 874 608.425 874.112 615.85L874.112 630.25 883 630.25 883 620.125C883 619.675 883 619.112 883 618.662 883 614.5 882.888 609.213 885.813 605.838 887.612 603.925 889.638 602.237 891.775 600.775 893.463 599.763 894.925 598.525 896.162 597.063 896.725 596.162 897.287 595.263 897.625 594.362 895.263 593.463 892.787 593.125 890.313 593.463 889.075 593.575 887.95 592.787 887.725 591.55 887.612 590.313 888.4 589.188 889.638 588.963 892.675 588.513 895.713 588.85 898.638 589.975 898.638 589.638 898.638 589.412 898.75 589.075 898.862 587.275 898.638 585.475 898.075 583.787 896.5 579.737 892.563 577.938 888.85 576.475 888.175 576.25 887.5 576.025 886.6 575.8L885.925 575.575 885.813 575.575C884.912 575.688 884.125 575.912 883.225 576.25L882.213 576.475 881.088 576.7C879.175 578.95 878.162 581.875 878.388 584.912 878.612 587.95 880.075 590.65 882.325 592.563 883.225 593.35 883.225 594.7 882.55 595.713 881.875 596.5 880.525 596.612 879.625 595.938 878.275 594.813 877.15 593.35 876.25 591.775L876.025 591.775C872.875 591.213 869.275 590.65 866.35 588.737 865.338 588.063 865.112 586.713 865.787 585.7 866.463 584.688 867.813 584.35 868.825 585.025 870.513 586.037 872.425 586.713 874.45 586.938 874.225 586.375 874.112 585.813 874 585.138 873.775 582.662 874.225 580.075 875.237 577.825 873.662 578.05 872.2 578.162 870.625 578.162 869.275 578.162 867.925 578.05 866.575 577.825 864.1 580.862 860.612 583.112 856.787 584.013 851.725 586.6 847 589.862 847 595.375 847 596.612 845.987 597.625 844.75 597.625 843.513 597.625 842.5 596.612 842.5 595.375 842.612 591.1 844.525 587.162 847.787 584.463 845.088 584.125 842.612 583 840.813 580.975 840.025 579.963 840.25 578.612 841.15 577.825 842.05 577.037 843.513 577.15 844.3 578.05 845.2 579.175 847.787 580.188 851.5 580.075 855.213 580.075 858.925 578.725 861.737 576.25 858.475 574.9 855.775 572.425 854.088 569.275 853.412 568.15 853.862 566.8 854.875 566.237 856 565.563 857.35 566.013 857.912 567.025 861.287 573.1 868.375 574.787 879.513 572.2 877.487 570.513 876.025 567.813 876.138 563.537 876.138 562.3 877.263 561.287 878.5 561.4 879.737 561.4 880.75 562.525 880.638 563.763 880.412 568.825 883.225 569.838 887.725 571.188 888.4 571.412 889.075 571.525 889.75 571.75 890.987 568.938 893.463 566.8 896.5 566.013 897.737 565.675 898.975 566.463 899.313 567.7 899.65 568.938 898.862 570.175 897.625 570.513 896.05 570.963 894.813 571.975 894.025 573.438 894.025 573.55 894.025 573.55 894.025 573.662 897.513 575.35 900.55 577.825 902.125 581.987 902.463 582.888 902.688 583.787 902.8 584.688 903.25 584.35 903.588 583.9 903.813 583.338 904.6 581.65 905.162 579.963 905.388 578.05 905.5 577.263 906.063 576.588 906.85 576.25 907.638 575.912 908.537 576.138 909.1 576.7 909.775 577.263 910 578.05 909.775 578.95 909.438 581.2 908.763 583.45 907.638 585.475 906.513 587.388 904.825 588.963 902.8 590.088 902.575 592.9 901.675 595.713 900.325 598.188 901.787 599.875 903.362 601.338 905.275 602.463 905.95 602.912 906.4 603.7 906.4 604.487 906.4 605.275 905.95 606.063 905.162 606.4 904.375 606.737 903.588 606.737 902.912 606.287 901 605.05 899.2 603.475 897.625 601.787 896.5 602.688 895.263 603.588 894.138 604.375 892.225 605.612 890.537 606.963 889.075 608.65 887.275 610.787 887.388 614.95 887.388 618.55 887.388 619.112 887.388 619.563 887.388 620.125L887.388 630.25 896.388 630.25C896.388 615.625 903.362 614.838 904.263 614.612 907.188 613.825 914.95 609.775 916.638 601.45 916.862 601 916.75 600.438 916.75 599.987 916.638 599.987 916.638 599.987 916.75 599.987Z" fill="#548235"/></g></g></g><g clip-path="url(#clip10)"><g clip-path="url(#clip11)"><g clip-path="url(#clip12)"><path d="M782.784 607.954C791.029 598.189 788.858 587.554 785.246 577.755 795.583 579.587 806.36 580.03 814.604 570.265L809.465 565.926C808.163 567.468 806.677 568.707 805.164 569.63L779.124 547.645C779.781 545.999 780.753 544.326 782.055 542.784L776.915 538.445C768.671 548.21 770.914 558.76 774.453 568.643 764.189 566.726 753.34 566.369 745.095 576.134 736.779 585.985 738.95 596.62 742.561 606.418 732.296 604.501 721.52 604.058 713.275 613.823L718.415 618.162C719.789 616.535 721.203 615.381 722.716 614.458L748.756 636.443C748.099 638.089 747.199 639.677 745.825 641.304L750.964 645.643C759.209 635.878 756.966 625.328 753.354 615.53 763.619 617.448 774.468 617.805 782.784 607.954ZM750.235 580.473C751.536 578.931 753.023 577.692 754.536 576.769L780.661 598.826C780.005 600.472 779.032 602.146 777.731 603.687 776.429 605.229 774.943 606.468 773.43 607.392L747.304 585.335C747.961 583.688 748.933 582.015 750.235 580.473ZM778.04 555.533 797.484 571.949C792.903 572.336 787.728 571.341 782.223 570.215 780.275 565.049 778.427 560.114 778.04 555.533ZM777.391 576.112C779.424 581.35 781.273 586.285 781.66 590.866L762.13 574.378C766.711 573.991 771.959 574.9 777.391 576.112ZM745.499 613.887C747.604 619.039 749.367 623.902 749.754 628.483L730.396 612.139C734.977 611.752 740.066 612.675 745.499 613.887ZM750.416 608.062C748.297 602.752 746.449 597.817 746.134 593.15L765.835 609.783C761.182 610.255 756.007 609.26 750.416 608.062Z" fill="#548235"/></g></g></g><g clip-path="url(#clip13)"><g clip-path="url(#clip14)"><g clip-path="url(#clip15)"><path d="M50.7135 22.2917C33.4375 22.2917 19.5052 36.224 19.5052 53.5 19.5052 58.9615 20.9542 64.0885 23.4063 68.5469 25.7469 66.0948 28.3104 63.6427 31.0969 60.9677 38.1188 54.3917 46.3667 47.7042 53.2771 42.8 53.7229 42.4656 54.1688 42.2427 54.726 42.2427 55.9521 42.2427 56.9552 43.2458 56.9552 44.4719 56.9552 45.2521 56.6208 45.8094 56.0635 46.2552L56.0635 46.2552C46.1438 53.3885 32.9917 64.4229 24.075 74.4542 24.075 74.4542 22.849 75.7917 22.2917 76.4604L22.2917 76.4604C17.276 82.3677 13.9323 87.7177 13.9323 91.5073L20.6198 91.5073C20.6198 89.0552 24.5208 83.7052 30.4281 77.3521 35.8896 82.0333 42.9115 84.8198 50.7135 84.8198 56.2865 84.8198 61.6365 83.3708 66.2063 80.6958L66.2063 80.6958C90.0583 67.4323 93.0677 43.0229 93.0677 15.6042 93.0677 15.6042 67.0979 22.7375 50.7135 22.2917Z" fill="#548235" transform="matrix(1 0 -0 1.00935 938 538)"/></g></g></g><text fill="#203864" font-family="Allerta Stencil,Allerta Stencil_MSFontService,sans-serif" font-weight="400" font-size="138" transform="translate(592.659 759)">Laborator.io</text></g></svg>