<svg xmlns="http://www.w3.org/2000/svg" width="1940" height="1939"><path d="M1136.715 212.148c-.768 1.844-8.975 21.915-18.238 44.602-9.262 22.688-17.106 41.25-17.431 41.25-.324 0-10.705-3.994-23.068-8.875-12.363-4.881-22.784-8.594-23.158-8.25-.974.896-279.44 669.819-283.337 680.625-1.785 4.95-3.842 12.375-4.572 16.5-1.633 9.232-1.632 27.441.001 35.5 2.764 13.636 8.872 28.26 15.731 37.665l3.402 4.664-9.175 21.599c-5.047 11.88-8.995 21.751-8.773 21.935.641.535 88.226 36.893 90.027 37.372 1.278.34 3.548-4.097 10.662-20.836l9.038-21.268 10.338-2.605c18.531-4.671 33.427-12.836 46.897-25.705 14.201-13.567 19.515-22.777 32.933-57.071l8.314-21.25H1204.923l.971 3.75c9.037 34.916 12.73 68.011 11.786 105.627-1.163 46.346-9.377 88.779-25.236 130.364-50.151 131.504-166.54 228.257-303.944 252.663-36.077 6.408-41.402 6.565-224.25 6.581L501 1487v133h934v-132.994l-158.081-.253-158.08-.253 12.83-10.215c49.551-39.45 93.477-91.585 124.674-147.974 44.289-80.055 65.111-168.358 61.568-261.104-4.932-129.107-60.635-250.368-156.967-341.707-13.312-12.622-31.314-27.713-45.236-37.923-5.936-4.352-10.589-8.4-10.34-8.995 45.921-109.792 133.883-321.459 133.987-322.42.093-.859-7.896-4.499-22.329-10.173-12.361-4.859-22.605-9.226-22.765-9.705-.16-.48 7.788-20.652 17.662-44.828 9.874-24.176 17.643-44.269 17.265-44.651-.694-.7-86.233-36.606-89.382-37.518-1.202-.349-2.099.482-3.091 2.861M1070.5 755.65c-32.089 5.124-60.603 25.766-74.978 54.279-11.626 23.061-13.674 52.082-5.384 76.313 8.456 24.717 27.322 46.032 51.362 58.03 13.788 6.88 31.217 10.286 48.298 9.435 68.822-3.426 113.644-73.933 87.264-137.272-11.764-28.245-35.287-49.05-65.562-57.986-7.555-2.23-11.329-2.706-23.5-2.967-7.975-.171-15.85-.095-17.5.168m-1.692 33.897c-35.27 8.553-57.809 45.761-48.876 80.687 5.792 22.645 21.791 39.755 44.793 47.902 8.229 2.915 25.441 3.622 34.775 1.429 12.371-2.906 22.715-8.698 31.989-17.912 14.108-14.015 20.033-28 19.978-47.153-.056-19.238-5.914-33.116-19.879-47.097-6.383-6.39-9.88-8.971-16.588-12.24-4.675-2.279-11.182-4.823-14.46-5.653-7.376-1.869-23.953-1.849-31.732.037m-433.18 367.212c-6.97 16.828-12.326 30.893-11.901 31.257.874.748 272.705 113.023 275.26 113.691 1.324.346 4.133-5.55 14.236-29.888 6.923-16.675 12.292-30.62 11.932-30.987-.49-.501-263.347-109.423-274.754-113.853-1.963-.762-2.924 1.176-14.773 29.78" fill="undefined" fill-rule="evenodd"/></svg>